<?xml version="1.0" encoding="iso-8859-1"?>
<!-- Generator: Adobe Illustrator 16.0.0, SVG Export Plug-In . SVG Version: 6.00 Build 0)  -->
<!DOCTYPE svg PUBLIC "-//W3C//DTD SVG 1.1//EN" "http://www.w3.org/Graphics/SVG/1.1/DTD/svg11.dtd">
<svg version="1.1" id="Capa_1" xmlns="http://www.w3.org/2000/svg" xmlns:xlink="http://www.w3.org/1999/xlink" x="0px" y="0px"
	 width="63.227px" height="63.228px" viewBox="0 0 63.227 63.228" style="enable-background:new 0 0 63.227 63.228;"
	 xml:space="preserve">
<g>
	<g>
		<path d="M14.833,32.54C8.835,33.167,3.829,34.9,1.68,39.103c-2.146,4.204,1.404,17.279,5.136,18.869
			c3.738,1.585,8.721,2.22,12.423-1.236c3.401-3.173,5.363-12.261,5.229-18.94C24.408,34.326,20.831,31.91,14.833,32.54z"/>
		<ellipse cx="2.057" cy="32.438" rx="2.055" ry="2.999"/>
		<ellipse cx="6.728" cy="29.459" rx="2.056" ry="2.999"/>
		<ellipse cx="11.583" cy="27.965" rx="2.059" ry="3.002"/>
		<ellipse cx="16.346" cy="27.5" rx="2.059" ry="3.001"/>
		<ellipse cx="22.045" cy="28.701" rx="2.563" ry="3.738"/>
		<path d="M2.57,23.317c0,0-1.536,1.51-1.536,4.65H2.57V23.317z"/>
		<path d="M7.498,20.318c0,0-1.541,1.514-1.541,4.648h1.541V20.318z"/>
		<path d="M12.354,18.668c0,0-1.539,1.511-1.539,4.651h1.539V18.668z"/>
		<path d="M17.117,17.991c0,0-1.54,1.514-1.54,4.651h1.54V17.991z"/>
		<path d="M21.276,19.054v4.647h1.539C22.814,20.565,21.276,19.054,21.276,19.054z"/>
		<path d="M48.395,18.524c-5.996-0.628-9.575,1.787-9.64,5.255c-0.132,6.68,1.83,15.768,5.23,18.941
			c3.702,3.455,8.688,2.821,12.423,1.236c3.734-1.59,7.283-14.666,5.135-18.87C59.399,20.886,54.392,19.152,48.395,18.524z"/>
		<ellipse cx="61.169" cy="18.423" rx="2.058" ry="3"/>
		<ellipse cx="56.498" cy="15.445" rx="2.058" ry="2.999"/>
		<ellipse cx="51.644" cy="13.95" rx="2.055" ry="3.002"/>
		<ellipse cx="46.88" cy="13.486" rx="2.056" ry="3.001"/>
		<path d="M41.183,10.948c1.414,0,2.559,1.673,2.559,3.738s-1.145,3.737-2.559,3.737c-1.417,0-2.564-1.673-2.564-3.737
			S39.766,10.948,41.183,10.948z"/>
		<path d="M60.659,9.303v4.65h1.535C62.194,10.816,60.659,9.303,60.659,9.303z"/>
		<path d="M55.729,6.303v4.648h1.54C57.269,7.816,55.729,6.303,55.729,6.303z"/>
		<path d="M50.873,4.654v4.651h1.537C52.41,6.165,50.873,4.654,50.873,4.654z"/>
		<path d="M46.11,3.977v4.651h1.54C47.65,5.49,46.11,3.977,46.11,3.977z"/>
		<path d="M41.952,5.039c0,0-1.54,1.511-1.54,4.648h1.54V5.039z"/>
	</g>
</g>
<g>
</g>
<g>
</g>
<g>
</g>
<g>
</g>
<g>
</g>
<g>
</g>
<g>
</g>
<g>
</g>
<g>
</g>
<g>
</g>
<g>
</g>
<g>
</g>
<g>
</g>
<g>
</g>
<g>
</g>
</svg>
