<?xml version="1.0" encoding="iso-8859-1"?>
<!-- Generator: Adobe Illustrator 19.0.0, SVG Export Plug-In . SVG Version: 6.00 Build 0)  -->
<svg version="1.1" id="Layer_1" xmlns="http://www.w3.org/2000/svg" xmlns:xlink="http://www.w3.org/1999/xlink" x="0px" y="0px"
	 viewBox="0 0 512 512" style="enable-background:new 0 0 512 512;" xml:space="preserve">
<g>
	<g>
		<path d="M397.796,390.792h-51.969c-5.77,0-10.449,4.679-10.449,10.449c0,5.77,4.679,10.449,10.449,10.449h51.969
			c5.77,0,10.449-4.679,10.449-10.449C408.245,395.471,403.567,390.792,397.796,390.792z"/>
	</g>
</g>
<g>
	<g>
		<path d="M310.3,390.792H113.16c-5.77,0-10.449,4.679-10.449,10.449c0,5.77,4.678,10.449,10.449,10.449H310.3
			c5.77,0,10.449-4.679,10.449-10.449C320.749,395.471,316.07,390.792,310.3,390.792z"/>
	</g>
</g>
<g>
	<g>
		<path d="M150.482,0c-32.265,0-58.514,26.249-58.514,58.514c0,32.265,26.249,58.514,58.514,58.514
			c32.265,0,58.514-26.249,58.514-58.514C208.996,26.249,182.747,0,150.482,0z M150.482,96.131
			c-20.742,0-37.616-16.874-37.616-37.616c0-20.742,16.874-37.616,37.616-37.616c20.742,0,37.616,16.874,37.616,37.616
			C188.098,79.257,171.224,96.131,150.482,96.131z"/>
	</g>
</g>
<g>
	<g>
		<path d="M501.551,265.452c5.77,0,10.449-4.678,10.449-10.449c0-5.77-4.679-10.449-10.449-10.449
			c-20.742,0-37.616-16.874-37.616-37.616v-3.29c10.179,8.565,23.302,13.739,37.616,13.739c5.77,0,10.449-4.678,10.449-10.449
			c0-5.77-4.679-10.449-10.449-10.449c-20.742,0-37.616-16.874-37.616-37.616c0-5.77-4.679-10.449-10.449-10.449
			c-5.771,0-10.449,4.679-10.449,10.449c0,20.742-16.874,37.616-37.616,37.616c-5.771,0-10.449,4.679-10.449,10.449
			c0,5.771,4.678,10.449,10.449,10.449c14.314,0,27.437-5.174,37.616-13.739v3.29c0,20.742-16.874,37.616-37.616,37.616
			c-5.771,0-10.449,4.679-10.449,10.449c0,5.771,4.678,10.449,10.449,10.449c14.314,0,27.437-5.174,37.616-13.739v3.29
			c0,20.742-16.874,37.616-37.616,37.616c-5.771,0-10.449,4.679-10.449,10.449c0,5.77,4.678,10.449,10.449,10.449
			c14.314,0,27.437-5.174,37.616-13.739v40.859H332.278v-40.859c10.179,8.565,23.302,13.739,37.616,13.739
			c5.77,0,10.449-4.679,10.449-10.449c0-5.77-4.679-10.449-10.449-10.449c-20.742,0-37.616-16.874-37.616-37.616v-3.29
			c10.179,8.565,23.302,13.739,37.616,13.739c5.77,0,10.449-4.678,10.449-10.449c0-5.77-4.679-10.449-10.449-10.449
			c-20.742,0-37.616-16.874-37.616-37.616v-3.29c10.179,8.565,23.302,13.739,37.616,13.739c5.77,0,10.449-4.678,10.449-10.449
			c0-5.77-4.679-10.449-10.449-10.449c-20.742,0-37.616-16.874-37.616-37.616v-3.29c10.179,8.565,23.302,13.739,37.616,13.739
			c5.77,0,10.449-4.678,10.449-10.449c0-5.77-4.679-10.449-10.449-10.449c-20.742,0-37.616-16.874-37.616-37.616
			c0-5.77-4.679-10.449-10.449-10.449c-5.771,0-10.449,4.679-10.449,10.449c0,20.742-16.874,37.616-37.616,37.616
			c-5.771,0-10.449,4.679-10.449,10.449c0,5.771,4.678,10.449,10.449,10.449c14.314,0,27.437-5.174,37.616-13.739v3.29
			c0,20.742-16.874,37.616-37.616,37.616c-5.771,0-10.449,4.679-10.449,10.449c0,5.771,4.678,10.449,10.449,10.449
			c14.314,0,27.437-5.174,37.616-13.739v3.29c0,20.742-16.874,37.616-37.616,37.616c-5.771,0-10.449,4.679-10.449,10.449
			c0,5.771,4.678,10.449,10.449,10.449c14.314,0,27.437-5.174,37.616-13.739v3.29c0,20.742-16.874,37.616-37.616,37.616
			c-5.771,0-10.449,4.679-10.449,10.449c0,5.77,4.678,10.449,10.449,10.449c14.314,0,27.437-5.174,37.616-13.739v40.859H200.62
			v-40.859c10.179,8.565,23.302,13.739,37.616,13.739c5.77,0,10.449-4.679,10.449-10.449c0-5.77-4.679-10.449-10.449-10.449
			c-20.742,0-37.616-16.874-37.616-37.616v-3.29c10.179,8.565,23.302,13.739,37.616,13.739c5.77,0,10.449-4.678,10.449-10.449
			c0-5.77-4.679-10.449-10.449-10.449c-20.742,0-37.616-16.874-37.616-37.616c0-5.77-4.679-10.449-10.449-10.449
			c-5.771,0-10.449,4.679-10.449,10.449c0,20.742-16.874,37.616-37.616,37.616c-5.771,0-10.449,4.679-10.449,10.449
			c0,5.771,4.678,10.449,10.449,10.449c14.314,0,27.437-5.174,37.616-13.739v3.29c0,20.742-16.874,37.616-37.616,37.616
			c-5.771,0-10.449,4.679-10.449,10.449c0,5.77,4.678,10.449,10.449,10.449c14.314,0,27.437-5.174,37.616-13.739v40.859H68.963
			v-40.859c10.179,8.565,23.302,13.739,37.616,13.739c5.77,0,10.449-4.679,10.449-10.449c0-5.77-4.679-10.449-10.449-10.449
			c-20.742,0-37.616-16.874-37.616-37.616v-3.29c10.179,8.565,23.302,13.739,37.616,13.739c5.77,0,10.449-4.678,10.449-10.449
			c0-5.77-4.679-10.449-10.449-10.449c-20.742,0-37.616-16.874-37.616-37.616v-3.29c10.179,8.565,23.302,13.739,37.616,13.739
			c5.77,0,10.449-4.678,10.449-10.449c0-5.77-4.679-10.449-10.449-10.449c-20.742,0-37.616-16.874-37.616-37.616
			c0-5.77-4.679-10.449-10.449-10.449c-5.77,0-10.449,4.679-10.449,10.449c0,20.742-16.874,37.616-37.616,37.616
			C4.678,196.489,0,201.168,0,206.938c0,5.771,4.678,10.449,10.449,10.449c14.314,0,27.437-5.174,37.616-13.739v3.29
			c0,20.742-16.874,37.616-37.616,37.616C4.678,244.554,0,249.233,0,255.003c0,5.771,4.678,10.449,10.449,10.449
			c14.314,0,27.437-5.174,37.616-13.739v3.29c0,20.742-16.874,37.616-37.616,37.616C4.678,292.62,0,297.299,0,303.068
			c0,5.77,4.678,10.449,10.449,10.449c14.314,0,27.437-5.174,37.616-13.739v40.859H35.527C15.937,340.637,0,356.574,0,376.163
			s15.937,35.527,35.527,35.527h25.126c8.067,0,14.629,6.562,14.629,14.629s-6.562,14.629-14.629,14.629h-1.093
			c-19.59,0-35.527,15.937-35.527,35.526S39.969,512,59.559,512h392.882c19.59,0,35.527-15.937,35.527-35.527
			s-15.937-35.526-35.527-35.526h-8.359c-8.067,0-14.629-6.562-14.629-14.629s6.562-14.629,14.629-14.629h32.392
			c19.59,0,35.527-15.937,35.527-35.527s-15.937-35.527-35.527-35.527h-12.539v-40.859c10.179,8.565,23.302,13.739,37.616,13.739
			c5.77,0,10.449-4.679,10.449-10.449c0-5.77-4.679-10.449-10.449-10.449c-20.742,0-37.616-16.874-37.616-37.616v-3.29
			C474.114,260.278,487.237,265.452,501.551,265.452z M476.473,361.535c8.067,0,14.629,6.562,14.629,14.629
			s-6.562,14.629-14.629,14.629h-32.392c-19.59,0-35.526,15.937-35.526,35.527s15.937,35.527,35.526,35.527h8.359
			c8.067,0,14.629,6.562,14.629,14.629c0,8.067-6.562,14.629-14.629,14.629H59.559c-8.067,0-14.629-6.562-14.629-14.629
			c0-8.067,6.562-14.629,14.629-14.629h1.093c19.59,0,35.527-15.937,35.527-35.527s-15.937-35.527-35.527-35.527H35.527
			c-8.067,0-14.629-6.562-14.629-14.629s6.562-14.629,14.629-14.629H476.473z"/>
	</g>
</g>
<g>
	<g>
		<path d="M397.796,440.947h-15.548c-5.77,0-10.449,4.679-10.449,10.449c0,5.77,4.679,10.449,10.449,10.449h15.548
			c5.77,0,10.449-4.679,10.449-10.449C408.245,445.626,403.567,440.947,397.796,440.947z"/>
	</g>
</g>
<g>
	<g>
		<path d="M197.544,440.947h-24.429c-5.77,0-10.449,4.679-10.449,10.449c0,5.77,4.679,10.449,10.449,10.449h24.429
			c5.77,0,10.449-4.679,10.449-10.449C207.993,445.626,203.314,440.947,197.544,440.947z"/>
	</g>
</g>
<g>
	<g>
		<path d="M137.589,440.947h-23.384c-5.77,0-10.449,4.679-10.449,10.449c0,5.77,4.679,10.449,10.449,10.449h23.384
			c5.77,0,10.449-4.679,10.449-10.449C148.038,445.626,143.359,440.947,137.589,440.947z"/>
	</g>
</g>
<g>
	<g>
		<path d="M346.721,440.947h-113.65c-5.771,0-10.449,4.679-10.449,10.449c0,5.77,4.678,10.449,10.449,10.449h113.65
			c5.771,0,10.449-4.679,10.449-10.449C357.17,445.626,352.492,440.947,346.721,440.947z"/>
	</g>
</g>
<g>
</g>
<g>
</g>
<g>
</g>
<g>
</g>
<g>
</g>
<g>
</g>
<g>
</g>
<g>
</g>
<g>
</g>
<g>
</g>
<g>
</g>
<g>
</g>
<g>
</g>
<g>
</g>
<g>
</g>
</svg>
