<?xml version="1.0" encoding="iso-8859-1"?>
<!-- Generator: Adobe Illustrator 19.0.0, SVG Export Plug-In . SVG Version: 6.00 Build 0)  -->
<svg version="1.1" id="Layer_1" xmlns="http://www.w3.org/2000/svg" xmlns:xlink="http://www.w3.org/1999/xlink" x="0px" y="0px"
	 viewBox="0 0 512 512" style="enable-background:new 0 0 512 512;" xml:space="preserve">
<g>
	<g>
		<path d="M261.445,344.625c-6.068,0-10.988,4.919-10.988,10.988v11.982c0,6.069,4.919,10.988,10.988,10.988
			c6.069,0,10.988-4.919,10.988-10.988v-11.982C272.433,349.544,267.514,344.625,261.445,344.625z"/>
	</g>
</g>
<g>
	<g>
		<path d="M474.632,179.383l-72.18-39.89V49.431c0-6.069-4.919-10.988-10.988-10.988h-55.189c-6.069,0-10.988,4.919-10.988,10.988
			v47.417l-77.046-42.579c-3.307-1.827-7.322-1.827-10.63,0L11.224,179.381C4.301,183.207,0,190.498,0,198.408v37.606
			c0,7.774,3.997,14.773,10.692,18.723c6.696,3.95,14.755,4.063,21.561,0.303l19.43-10.737v207.278H11.748
			c-6.069,0-10.988,4.919-10.988,10.988c0,6.068,4.919,10.988,10.988,10.988h441.654c6.068,0,10.988-4.919,10.988-10.988
			c0-6.069-4.919-10.988-10.988-10.988h-19.232V244.302l19.431,10.738c3.311,1.829,6.917,2.741,10.521,2.741
			c3.803,0,7.601-1.016,11.039-3.045c6.696-3.95,10.693-10.949,10.693-18.723v-37.606
			C485.855,190.499,481.554,183.21,474.632,179.383z M347.262,60.418h33.214v66.929l-33.214-18.355V60.418z M177.346,451.582H73.658
			v-45.333h103.688V451.582z M177.346,384.273H73.658v-45.336h103.688V384.273z M177.346,316.961H73.658v-45.336h103.688V316.961z
			 M286.532,451.582h-87.211V271.625h87.211V451.582z M412.196,451.582H308.508v-45.333h103.688V451.582z M412.196,384.273H308.508
			v-45.336h103.688V384.273z M412.196,316.961H308.508v-45.336h103.688V316.961z M412.196,249.649H297.519H188.333H73.658v-17.49
			l50.484-27.9c0.363,0.036,237.207,0.036,237.569,0l50.484,27.9V249.649z M163.806,182.338l79.122-43.726l79.122,43.726H163.806z
			 M463.879,235.613L248.242,116.441c-1.654-0.914-3.484-1.371-5.315-1.371c-1.831,0-3.661,0.457-5.315,1.371L21.975,235.612
			v-37.064l220.951-122.11l88.067,48.67c0.025,0.014,0.051,0.029,0.077,0.043l55.11,30.457c0.026,0.014,0.054,0.03,0.08,0.044
			l77.618,42.896V235.613z"/>
	</g>
</g>
<g>
	<g>
		<path d="M501.012,451.582h-11.995c-6.069,0-10.988,4.919-10.988,10.988s4.919,10.988,10.988,10.988h11.995
			c6.069,0,10.988-4.919,10.988-10.988S507.081,451.582,501.012,451.582z"/>
	</g>
</g>
<g>
</g>
<g>
</g>
<g>
</g>
<g>
</g>
<g>
</g>
<g>
</g>
<g>
</g>
<g>
</g>
<g>
</g>
<g>
</g>
<g>
</g>
<g>
</g>
<g>
</g>
<g>
</g>
<g>
</g>
</svg>
