<?xml version="1.0" encoding="iso-8859-1"?>
<!-- Generator: Adobe Illustrator 18.0.0, SVG Export Plug-In . SVG Version: 6.00 Build 0)  -->
<!DOCTYPE svg PUBLIC "-//W3C//DTD SVG 1.1//EN" "http://www.w3.org/Graphics/SVG/1.1/DTD/svg11.dtd">
<svg version="1.1" id="Capa_1" xmlns="http://www.w3.org/2000/svg" xmlns:xlink="http://www.w3.org/1999/xlink" x="0px" y="0px"
	 viewBox="0 0 389.665 389.665" style="enable-background:new 0 0 389.665 389.665;" xml:space="preserve">
	 <style type="text/css">
	 	path {
	 		fill: #fff;
	 	}
	 </style>
<g>
	<path d="M219.752,187.574c-0.003,0-0.002,0-0.005,0c-28.442,0-59.015-0.675-87.925-1.938
		c-18.383,52.539-49.676,161.678,7.619,161.678c28.677,0,43.664,0,51.242,0c2.268,0,3.877,0,4.982,0c7.579,0,22.566,0,51.248,0
		c56.726,0,26.614-106.984,8.169-160.098C242.285,187.484,230.208,187.574,219.752,187.574z"/>
	<path class='thisThing' d="M388.94,142.026C378.118,102.924,251.304,42.35,195.707,42.35c-54.709,0-186.554,63.779-195.273,101.591
		c-1.114,4.83-1.046,12.004,12.341,18.525c16.448,8.011,113.163,15.039,206.971,15.039c83.157,0,142.44-5.561,158.582-14.874
		C390.862,155.118,390.391,147.271,388.94,142.026z M54.674,122.679c-3.393,3.224-9.734,9.181-8.939,14.472
		c0.482,3.313,4.12,3.091,5.798,5.32c2.993,3.975-1.317,9.547-5.919,7.625c2.548,1.064,0.11,0.047,0,0
		c-15.186-6.547-6.008-22.494,2.867-29.59c10.725-8.868,24.15-14.465,36.809-19.943C74.612,107.135,63.69,113.879,54.674,122.679z"
		/>
</g>
<g>
</g>
<g>
</g>
<g>
</g>
<g>
</g>
<g>
</g>
<g>
</g>
<g>
</g>
<g>
</g>
<g>
</g>
<g>
</g>
<g>
</g>
<g>
</g>
<g>
</g>
<g>
</g>
<g>
</g>
</svg>
