<?xml version="1.0" encoding="iso-8859-1"?>
<!-- Generator: Adobe Illustrator 17.1.0, SVG Export Plug-In . SVG Version: 6.00 Build 0)  -->
<!DOCTYPE svg PUBLIC "-//W3C//DTD SVG 1.1//EN" "http://www.w3.org/Graphics/SVG/1.1/DTD/svg11.dtd">
<svg version="1.1" id="Capa_1" xmlns="http://www.w3.org/2000/svg" xmlns:xlink="http://www.w3.org/1999/xlink" x="0px" y="0px"
	 viewBox="0 0 207.26 207.26" style="enable-background:new 0 0 207.26 207.26;" xml:space="preserve">
<style type="text/css">
 	path {
 		fill: #fff;
 	}
</style>
<path d="M200.885,136.093c-4.742-3.372-8.288-7.528-10.54-12.354c-4.653-9.972-5.784-49.464-5.403-72.014
	c0.006-0.325-0.018-0.647-0.055-0.967c-1.276-21.497-51.451-27.269-81.257-27.269c-29.801,0-79.964,5.77-81.255,27.259
	c-0.037,0.323-0.061,0.648-0.055,0.977c0.381,22.55-0.75,62.042-5.404,72.015c-2.251,4.824-5.797,8.98-10.538,12.353
	c-3.943,2.804-6.267,7.176-6.373,11.996c-0.105,4.786,2.001,9.22,5.779,12.167l1.941,1.514c2.615,2.04,5.88,3.163,9.194,3.163
	c4.184,0,8.217-1.767,11.065-4.849c3.839-4.152,11.412-11.118,19.007-11.118c0.512,0,1.024,0.033,1.522,0.098
	c1.143,0.148,1.345,0.455,1.466,0.637c0.851,1.287,1.609,5.884-0.938,14.953c-2.229,7.938,2.401,16.249,10.32,18.528
	c1.359,0.391,2.764,0.59,4.173,0.59c6.981,0,12.982-4.716,14.594-11.47c2.823-11.837,13.31-20.104,25.501-20.104
	s22.678,8.267,25.502,20.104c1.611,6.753,7.612,11.469,14.594,11.469c1.409,0,2.813-0.199,4.173-0.59
	c7.921-2.279,12.55-10.592,10.319-18.529c-2.547-9.067-1.787-13.665-0.938-14.952c0.121-0.183,0.323-0.489,1.465-0.637
	c0.499-0.065,1.012-0.098,1.523-0.098c7.595,0,15.169,6.965,19.007,11.117c2.849,3.082,6.882,4.85,11.065,4.85c0.001,0,0,0,0.001,0
	c3.313,0,6.578-1.123,9.194-3.163l1.941-1.514c3.778-2.946,5.885-7.38,5.779-12.166C207.15,143.271,204.828,138.898,200.885,136.093
	z M103.63,38.489c41.164,0,62.822,8.867,66.067,13.105c-0.009,0.012-0.015,0.024-0.024,0.036c-0.046,0.059-0.105,0.121-0.157,0.181
	c-0.069,0.078-0.134,0.156-0.215,0.237c-0.063,0.064-0.139,0.131-0.21,0.196c-0.088,0.082-0.173,0.163-0.273,0.247
	c-0.081,0.069-0.175,0.14-0.264,0.21c-0.107,0.085-0.212,0.169-0.331,0.256c-0.1,0.073-0.211,0.148-0.319,0.223
	c-0.125,0.087-0.249,0.173-0.385,0.262c-0.12,0.078-0.25,0.157-0.378,0.237c-0.143,0.088-0.285,0.177-0.439,0.266
	c-0.138,0.081-0.286,0.163-0.432,0.244c-0.163,0.091-0.325,0.182-0.498,0.274c-0.156,0.083-0.321,0.167-0.484,0.25
	c-0.182,0.093-0.365,0.186-0.557,0.28c-0.174,0.085-0.357,0.17-0.539,0.256c-0.201,0.094-0.403,0.188-0.614,0.283
	c-0.193,0.087-0.395,0.174-0.596,0.261c-0.219,0.095-0.44,0.19-0.67,0.285c-0.212,0.088-0.432,0.177-0.653,0.265
	c-0.238,0.095-0.479,0.191-0.727,0.286c-0.23,0.089-0.467,0.178-0.706,0.266c-0.257,0.096-0.518,0.191-0.786,0.287
	c-0.25,0.089-0.506,0.179-0.765,0.268c-0.276,0.095-0.555,0.19-0.841,0.285c-0.268,0.089-0.541,0.178-0.818,0.266
	c-0.296,0.095-0.598,0.19-0.904,0.284c-0.286,0.088-0.576,0.176-0.871,0.264c-0.315,0.094-0.635,0.187-0.96,0.279
	c-0.306,0.088-0.616,0.175-0.931,0.261c-0.334,0.092-0.675,0.184-1.02,0.275c-0.323,0.085-0.648,0.17-0.979,0.255
	c-0.357,0.091-0.721,0.181-1.089,0.271c-0.338,0.083-0.677,0.165-1.024,0.247c-0.378,0.089-0.765,0.177-1.154,0.265
	c-0.357,0.081-0.716,0.161-1.082,0.24c-0.396,0.086-0.801,0.17-1.207,0.254c-0.376,0.078-0.752,0.156-1.137,0.232
	c-0.418,0.083-0.847,0.164-1.275,0.246c-0.393,0.074-0.785,0.149-1.186,0.221c-0.439,0.08-0.889,0.157-1.339,0.234
	c-0.409,0.07-0.817,0.141-1.234,0.209c-0.462,0.076-0.935,0.149-1.408,0.222c-0.426,0.066-0.85,0.133-1.284,0.197
	c-0.483,0.071-0.978,0.14-1.472,0.208c-0.443,0.062-0.884,0.124-1.336,0.183c-0.507,0.067-1.027,0.13-1.545,0.194
	c-0.456,0.056-0.908,0.113-1.373,0.167c-0.533,0.062-1.08,0.119-1.625,0.178c-0.471,0.051-0.938,0.103-1.418,0.151
	c-0.552,0.055-1.119,0.106-1.682,0.158c-0.49,0.045-0.975,0.092-1.474,0.135c-0.578,0.049-1.171,0.094-1.76,0.139
	c-0.503,0.039-0.999,0.08-1.51,0.116c-0.612,0.043-1.241,0.08-1.865,0.12c-0.506,0.032-1.006,0.066-1.52,0.095
	c-0.655,0.037-1.327,0.067-1.994,0.099c-0.504,0.024-0.999,0.052-1.51,0.073c-0.717,0.03-1.453,0.052-2.185,0.077
	c-0.479,0.016-0.948,0.036-1.433,0.049c-0.82,0.023-1.66,0.037-2.497,0.052c-0.417,0.008-0.823,0.02-1.244,0.025
	c-1.266,0.017-2.55,0.027-3.855,0.027c-1.305,0-2.589-0.009-3.854-0.027c-0.436-0.006-0.857-0.018-1.288-0.026
	c-0.821-0.015-1.645-0.029-2.449-0.051c-0.501-0.014-0.987-0.034-1.482-0.051c-0.716-0.024-1.437-0.046-2.14-0.075
	c-0.514-0.021-1.013-0.049-1.52-0.073c-0.664-0.032-1.333-0.062-1.984-0.098c-0.518-0.029-1.021-0.063-1.531-0.095
	c-0.62-0.039-1.245-0.076-1.853-0.119c-0.521-0.037-1.027-0.078-1.539-0.118c-0.578-0.045-1.16-0.088-1.728-0.136
	c-0.508-0.043-1.003-0.091-1.503-0.137c-0.554-0.051-1.112-0.101-1.656-0.156c-0.494-0.05-0.974-0.103-1.459-0.155
	c-0.527-0.057-1.057-0.113-1.574-0.172c-0.482-0.056-0.952-0.115-1.425-0.173c-0.501-0.062-1.005-0.123-1.496-0.188
	c-0.469-0.062-0.926-0.126-1.385-0.19c-0.475-0.066-0.952-0.132-1.417-0.2c-0.454-0.067-0.897-0.137-1.342-0.206
	c-0.453-0.07-0.906-0.141-1.349-0.213c-0.437-0.072-0.863-0.145-1.29-0.219c-0.431-0.074-0.862-0.148-1.283-0.224
	c-0.422-0.076-0.835-0.155-1.247-0.233c-0.406-0.077-0.813-0.154-1.21-0.233c-0.405-0.08-0.801-0.162-1.196-0.244
	c-0.387-0.08-0.774-0.161-1.152-0.243c-0.385-0.083-0.761-0.168-1.136-0.252c-0.368-0.083-0.735-0.167-1.094-0.251
	c-0.367-0.086-0.726-0.173-1.083-0.261c-0.347-0.085-0.692-0.17-1.03-0.256c-0.35-0.089-0.694-0.179-1.034-0.269
	c-0.326-0.087-0.649-0.173-0.966-0.26c-0.332-0.091-0.658-0.183-0.98-0.275c-0.308-0.088-0.612-0.177-0.91-0.265
	c-0.311-0.092-0.617-0.185-0.918-0.278c-0.29-0.089-0.575-0.179-0.856-0.269c-0.293-0.094-0.581-0.188-0.864-0.281
	c-0.269-0.09-0.534-0.179-0.794-0.269c-0.275-0.095-0.547-0.19-0.813-0.285c-0.25-0.089-0.494-0.179-0.735-0.269
	c-0.255-0.095-0.508-0.189-0.753-0.284c-0.233-0.09-0.459-0.179-0.683-0.269c-0.235-0.094-0.469-0.188-0.695-0.282
	c-0.215-0.089-0.423-0.179-0.629-0.268c-0.215-0.093-0.43-0.186-0.635-0.279c-0.198-0.089-0.388-0.177-0.577-0.266
	c-0.194-0.091-0.388-0.182-0.573-0.272c-0.183-0.089-0.356-0.177-0.53-0.266c-0.173-0.088-0.346-0.176-0.51-0.263
	c-0.166-0.088-0.321-0.175-0.478-0.263c-0.152-0.085-0.306-0.17-0.449-0.254c-0.149-0.087-0.287-0.173-0.425-0.258
	c-0.132-0.082-0.267-0.164-0.391-0.244c-0.133-0.086-0.253-0.171-0.375-0.255c-0.111-0.077-0.225-0.154-0.328-0.229
	c-0.115-0.085-0.218-0.167-0.323-0.249c-0.092-0.073-0.188-0.146-0.272-0.217c-0.097-0.082-0.181-0.162-0.267-0.242
	c-0.072-0.067-0.15-0.135-0.214-0.2c-0.08-0.081-0.145-0.158-0.214-0.236c-0.053-0.061-0.112-0.123-0.158-0.182
	c-0.01-0.012-0.015-0.024-0.024-0.036C40.809,47.357,62.467,38.489,103.63,38.489z"/>
<g>
</g>
<g>
</g>
<g>
</g>
<g>
</g>
<g>
</g>
<g>
</g>
<g>
</g>
<g>
</g>
<g>
</g>
<g>
</g>
<g>
</g>
<g>
</g>
<g>
</g>
<g>
</g>
<g>
</g>
</svg>
